<svg width="32" height="38" viewBox="0 0 32 38" fill="none" xmlns="http://www.w3.org/2000/svg">
<g filter="url(#filter0_d_1_4)">
<path d="M18.9943 7.18182H21.6364V22.7784C21.6364 24.1705 21.3807 25.353 20.8693 26.326C20.358 27.299 19.6371 28.0376 18.7067 28.5419C17.7763 29.0462 16.679 29.2983 15.4148 29.2983C14.2216 29.2983 13.1598 29.0817 12.2294 28.6484C11.299 28.2081 10.5675 27.5831 10.0348 26.7734C9.50213 25.9638 9.2358 25.0014 9.2358 23.8864H11.8352C11.8352 24.5043 11.9879 25.044 12.2933 25.5057C12.6058 25.9602 13.032 26.3153 13.5717 26.571C14.1115 26.8267 14.7259 26.9545 15.4148 26.9545C16.1747 26.9545 16.821 26.7947 17.3537 26.4751C17.8864 26.1555 18.2912 25.6868 18.5682 25.0689C18.8523 24.4439 18.9943 23.6804 18.9943 22.7784V7.18182Z" fill="black"/>
<path d="M18.9943 7.18182V6.18182H17.9943V7.18182H18.9943ZM21.6364 7.18182H22.6364V6.18182H21.6364V7.18182ZM20.8693 26.326L21.7545 26.7912L21.7545 26.7912L20.8693 26.326ZM18.7067 28.5419L19.1832 29.4211L19.1832 29.4211L18.7067 28.5419ZM12.2294 28.6484L11.8016 29.5523L11.8073 29.555L12.2294 28.6484ZM10.0348 26.7734L9.19938 27.3231L9.19938 27.3231L10.0348 26.7734ZM9.2358 23.8864V22.8864H8.2358V23.8864H9.2358ZM11.8352 23.8864H12.8352V22.8864H11.8352V23.8864ZM12.2933 25.5057L11.4593 26.0574L11.4642 26.0649L11.4693 26.0722L12.2933 25.5057ZM13.5717 26.571L13.9998 25.6673L13.9998 25.6673L13.5717 26.571ZM17.3537 26.4751L16.8392 25.6176L16.8392 25.6176L17.3537 26.4751ZM18.5682 25.0689L17.6578 24.6551L17.6557 24.6598L18.5682 25.0689ZM18.9943 8.18182H21.6364V6.18182H18.9943V8.18182ZM20.6364 7.18182V22.7784H22.6364V7.18182H20.6364ZM20.6364 22.7784C20.6364 24.0505 20.4026 25.0644 19.9841 25.8608L21.7545 26.7912C22.3587 25.6415 22.6364 24.2904 22.6364 22.7784H20.6364ZM19.9841 25.8608C19.5612 26.6655 18.9793 27.2567 18.2302 27.6627L19.1832 29.4211C20.2948 28.8186 21.1547 27.9325 21.7545 26.7912L19.9841 25.8608ZM18.2302 27.6627C17.4721 28.0736 16.5449 28.2983 15.4148 28.2983V30.2983C16.8131 30.2983 18.0805 30.0187 19.1832 29.4211L18.2302 27.6627ZM15.4148 28.2983C14.3438 28.2983 13.4299 28.1043 12.6515 27.7419L11.8073 29.555C12.8897 30.059 14.0993 30.2983 15.4148 30.2983V28.2983ZM12.6572 27.7446C11.8819 27.3776 11.2957 26.8706 10.8702 26.2238L9.19938 27.3231C9.8392 28.2956 10.7161 29.0386 11.8016 29.5523L12.6572 27.7446ZM10.8702 26.2238C10.4604 25.6009 10.2358 24.8363 10.2358 23.8864H8.2358C8.2358 25.1666 8.54388 26.3267 9.19938 27.3231L10.8702 26.2238ZM9.2358 24.8864H11.8352V22.8864H9.2358V24.8864ZM10.8352 23.8864C10.8352 24.6768 11.0333 25.4135 11.4593 26.0574L13.1273 24.9539C12.9426 24.6746 12.8352 24.3317 12.8352 23.8864H10.8352ZM11.4693 26.0722C11.8899 26.6841 12.4581 27.15 13.1436 27.4748L13.9998 25.6673C13.6058 25.4807 13.3217 25.2364 13.1174 24.9392L11.4693 26.0722ZM13.1436 27.4748C13.8363 27.8029 14.6005 27.9545 15.4148 27.9545V25.9545C14.8512 25.9545 14.3867 25.8505 13.9998 25.6673L13.1436 27.4748ZM15.4148 27.9545C16.3155 27.9545 17.1488 27.7643 17.8682 27.3326L16.8392 25.6176C16.4933 25.8252 16.0339 25.9545 15.4148 25.9545V27.9545ZM17.8682 27.3326C18.5922 26.8983 19.1279 26.2649 19.4807 25.4779L17.6557 24.6598C17.4545 25.1087 17.1806 25.4128 16.8392 25.6176L17.8682 27.3326ZM19.4785 25.4827C19.8372 24.6937 19.9943 23.7804 19.9943 22.7784H17.9943C17.9943 23.5804 17.8674 24.194 17.6578 24.6551L19.4785 25.4827ZM19.9943 22.7784V7.18182H17.9943V22.7784H19.9943Z" fill="black"/>
</g>
<defs>
<filter id="filter0_d_1_4" x="5.23581" y="7.18182" width="20.4005" height="30.1165" filterUnits="userSpaceOnUse" color-interpolation-filters="sRGB">
<feFlood flood-opacity="0" result="BackgroundImageFix"/>
<feColorMatrix in="SourceAlpha" type="matrix" values="0 0 0 0 0 0 0 0 0 0 0 0 0 0 0 0 0 0 127 0" result="hardAlpha"/>
<feOffset dy="4"/>
<feGaussianBlur stdDeviation="2"/>
<feComposite in2="hardAlpha" operator="out"/>
<feColorMatrix type="matrix" values="0 0 0 0 0 0 0 0 0 0 0 0 0 0 0 0 0 0 0.25 0"/>
<feBlend mode="normal" in2="BackgroundImageFix" result="effect1_dropShadow_1_4"/>
<feBlend mode="normal" in="SourceGraphic" in2="effect1_dropShadow_1_4" result="shape"/>
</filter>
</defs>
</svg>
